<svg width="183" height="40" viewBox="0 0 183 40" fill="none" xmlns="http://www.w3.org/2000/svg">
<path d="M104.423 15.5493C103.642 14.2788 102.504 13.4124 101.157 12.8833C100.278 12.5383 99.3072 12.3671 98.3623 12.2629C97.5294 12.1715 96.6746 12.2732 95.8315 12.3105C95.5289 12.3234 95.2213 12.3723 94.9291 12.4534C94.3202 12.6207 93.701 12.7765 93.1217 13.0224C92.6106 13.2386 92.1588 13.5888 91.6619 13.8424C91.4894 13.9312 91.2603 13.9119 91.0569 13.9415C91.053 13.7124 91.0234 13.4781 91.0556 13.2541C91.0916 12.9889 91.1959 12.734 91.2474 12.4701C91.4057 11.654 91.546 10.8352 91.7082 10.0204C91.8202 9.45655 91.9528 8.89657 92.0841 8.3366C92.2759 7.5153 92.4871 6.69657 92.6673 5.87142C92.8681 4.95357 93.0457 4.02929 93.2298 3.10759C93.41 2.21549 93.5825 1.3221 93.7653 0.431288C93.8323 0.101739 93.6894 4.00355e-05 93.3791 0.00261464C92.0597 0.00905114 90.7402 0.0116272 89.4207 4.14497e-05C89.1117 -0.00253315 88.9328 0.11461 88.8684 0.413264C88.6754 1.30536 88.4797 2.19617 88.293 3.08827C88.145 3.79114 88.0214 4.49787 87.8644 5.19816C87.6828 6.00787 87.4563 6.80728 87.2876 7.61957C87.1074 8.47949 86.9748 9.3497 86.8178 10.2148C86.7946 10.3396 86.7418 10.4606 86.7135 10.5855C86.5281 11.3926 86.335 12.1985 86.1664 13.0095C86.0003 13.8089 85.8716 14.6148 85.7068 15.4142C85.5047 16.4002 85.282 17.3812 85.0683 18.3647C84.9113 19.083 84.7452 19.8 84.5972 20.5196C84.4054 21.458 84.1634 22.3913 84.0578 23.3388C83.9613 24.2142 84.1415 25.0741 84.3294 25.9507C84.6101 27.2573 85.2074 28.3451 86.0544 29.3132C86.9118 30.2928 87.9982 30.9931 89.234 31.3857C90.9217 31.9212 92.6428 32.2997 94.4386 32.0371C95.1543 31.9315 95.8945 31.9328 96.5832 31.741C97.4535 31.5003 98.2876 31.1205 99.1282 30.7833C100.39 30.2773 101.452 29.4612 102.313 28.4404C103.477 27.0604 104.36 25.5105 104.875 23.7546C105.251 22.4724 105.605 21.198 105.511 19.8296C105.633 18.2913 105.238 16.8701 104.423 15.5493ZM98.733 25.2955C98.0932 26.2159 97.2127 26.866 96.2176 27.3256C95.3886 27.7079 94.4965 27.9538 93.6121 27.7838C92.2309 27.928 91.0607 27.5959 90.1313 26.6124C89.4902 25.9353 89.1594 25.1217 89.1066 24.1794C88.9882 22.0528 89.6292 20.1785 91.0298 18.6002C92.1845 17.2988 93.6109 16.4504 95.4311 16.4685C95.8817 16.4723 96.3322 16.4865 96.7815 16.4723C98.1319 16.4299 99.8041 17.833 100.13 19.0585C100.758 21.4181 100.045 23.407 98.733 25.2955ZM21.4448 19.818C21.4422 19.818 21.4384 19.8167 21.4345 19.8167C21.5761 18.2578 21.1745 16.8431 20.3545 15.5275C19.5563 14.2492 18.4094 13.3867 17.0371 12.8653C16.2274 12.5564 15.3443 12.4199 14.4818 12.2706C13.5305 12.1071 12.5676 12.0311 11.6163 12.335C11.3897 12.407 11.1335 12.3839 10.9044 12.4495C10.2659 12.6336 9.6171 12.7984 9.00692 13.0546C8.97345 13.0687 8.94126 13.0816 8.90908 13.097C8.42248 13.3172 7.97836 13.639 7.50077 13.8874C7.37462 13.9531 7.09528 13.9788 7.04765 13.9428C7.04507 13.9402 7.0425 13.9389 7.04121 13.9364C6.96526 13.7613 6.92922 13.5424 6.96011 13.3545C7.0013 13.106 7.15192 12.8769 7.19955 12.6285C7.36303 11.766 7.49563 10.897 7.65396 10.0333C7.7518 9.5016 7.87409 8.97252 7.99124 8.44473C8.20493 7.48054 8.43021 6.51893 8.64004 5.55474C8.80352 4.80682 8.94899 4.05504 9.1099 3.30583C9.30943 2.36867 9.52184 1.43538 9.71879 0.498226C9.79088 0.155804 9.64928 -0.00253315 9.27982 4.14497e-05C7.97708 0.0129145 6.67304 0.0116284 5.37029 0.00133001C5.06392 -0.00124459 4.87855 0.117186 4.81032 0.410691C4.62752 1.18951 4.43571 1.96703 4.2748 2.74971C4.10745 3.562 3.99932 4.38459 3.82038 5.1943C3.51658 6.56399 3.15356 7.9208 2.86263 9.29435C2.55883 10.731 2.31038 12.1792 2.03619 13.6223C2.01817 13.7162 1.98856 13.8089 1.96667 13.9029C1.78001 14.6778 1.57791 15.4489 1.41314 16.229C1.23678 17.0593 1.10161 17.8987 0.939406 18.7328C0.828698 19.2954 0.697394 19.8528 0.584112 20.414C0.388442 21.3795 0.130982 22.3398 0.0292856 23.3156C-0.0608254 24.1678 0.0691926 25.0161 0.253277 25.8812C0.560941 27.3243 1.23291 28.5202 2.22413 29.5384C2.93601 30.2683 3.79335 30.8167 4.76784 31.2158C6.18902 31.7989 7.66813 32.0899 9.16783 32.1027C10.486 32.1143 11.8338 31.9972 13.0954 31.517C14.0918 31.1385 15.1396 30.8309 16.042 30.2876C18.7453 28.6579 20.1768 26.064 21.0354 23.138C21.0457 23.1045 21.0548 23.071 21.0638 23.035C21.0766 22.9886 21.0882 22.941 21.0998 22.8921C21.3547 21.9009 21.4113 20.853 21.5684 19.8322C21.5272 19.827 21.486 19.8232 21.4448 19.818ZM16.3059 21.1504C16.1051 22.9397 15.4936 24.5926 14.196 25.8902C12.9705 27.1144 11.5094 27.8778 9.70592 27.8122C8.87561 27.7813 8.0453 27.8624 7.25619 27.4594C6.05771 26.8467 5.28791 25.9173 5.10511 24.5836C4.89914 23.0891 5.14888 21.6357 5.82342 20.2879C6.56748 18.8023 7.64882 17.6103 9.20001 16.9319C10.0561 16.5586 10.9585 16.323 11.8802 16.4929C13.3078 16.305 14.4792 16.7646 15.3829 17.8137C16.2016 18.765 16.4424 19.939 16.3059 21.1504ZM182.463 12.8421C181.128 12.8447 179.792 12.8357 178.457 12.8537C178.322 12.855 178.094 12.9876 178.067 13.097C177.812 14.1359 177.585 15.1812 177.363 16.2277C177.194 17.0246 177.058 17.8291 176.879 18.6234C176.713 19.3546 176.447 20.0665 176.334 20.8041C176.168 21.8777 175.932 22.9217 175.605 23.9618C175.231 25.1565 174.595 26.1515 173.62 26.8943C172.963 27.3951 172.195 27.7581 171.333 27.7903C170.755 27.8134 170.173 27.8328 169.596 27.7967C167.961 27.695 166.862 26.5712 166.825 24.9402C166.808 24.182 166.996 23.416 167.122 22.6591C167.25 21.888 167.401 21.1208 167.569 20.3574C167.75 19.5322 167.981 18.7174 168.156 17.8896C168.331 17.0606 168.444 16.2174 168.618 15.3871C168.772 14.6521 168.962 13.9248 169.156 13.2C169.244 12.873 169.066 12.8421 168.829 12.8421C168.121 12.8409 167.413 12.8421 166.705 12.8409H165.113C164.242 12.8409 164.242 12.8409 164.128 13.7175C164.119 13.7806 164.111 13.845 164.096 13.9067C163.771 15.2558 163.42 16.5985 163.126 17.954C162.834 19.3095 162.599 20.6779 162.337 22.0399C162.313 22.1661 162.27 22.2884 162.247 22.4145C162.051 23.4328 161.78 24.442 161.682 25.4693C161.544 26.9213 161.555 28.3631 162.373 29.6968C162.889 30.5361 163.59 31.1025 164.463 31.4475C165.126 31.7088 165.836 31.8749 166.54 31.9972C167.12 32.0963 167.731 32.1568 168.306 32.0783C169.187 31.9573 170.056 31.7307 170.916 31.4977C172.113 31.1759 173.09 30.5091 173.842 29.5127C173.944 29.3788 174.124 29.3029 174.268 29.1999C174.336 29.3852 174.48 29.5809 174.458 29.7547C174.415 30.0984 174.292 30.4344 174.18 30.7665C173.944 31.472 173.767 32.2109 173.434 32.8687C172.401 34.9013 170.616 35.823 168.421 35.9827C167.301 36.065 166.167 36.0457 165.046 35.9685C164.286 35.917 163.519 35.7497 162.794 35.5167C162.085 35.2901 161.426 34.9129 160.742 34.6052C160.329 34.4186 160.155 34.4933 160.02 34.9219C159.971 35.0751 159.945 35.2347 159.913 35.3918C159.736 36.2684 159.542 37.1412 159.396 38.0217C159.37 38.1775 159.49 38.4607 159.618 38.5199C160.227 38.798 160.843 39.1159 161.489 39.2421C163.014 39.5382 164.554 39.8008 166.099 39.9514C167.999 40.1355 169.863 39.7635 171.722 39.3914C172.928 39.1507 173.982 38.6268 174.98 37.9471C176.025 37.2339 176.805 36.2787 177.397 35.1794C177.809 34.4109 178.172 33.6114 178.499 32.8017C178.719 32.2585 178.855 31.6792 179.001 31.1089C179.206 30.3057 179.394 29.4985 179.574 28.6901C179.776 27.7838 179.956 26.8724 180.153 25.9649C180.309 25.2479 180.484 24.5347 180.635 23.8164C180.822 22.923 180.986 22.0232 181.17 21.1285C181.349 20.2557 181.539 19.3829 181.725 18.5114C181.902 17.6966 182.083 16.8817 182.256 16.0655C182.453 15.131 182.643 14.1938 182.832 13.2567C182.892 12.9619 182.749 12.8421 182.463 12.8421ZM128.463 15.2661C127.266 13.6776 125.488 13.0777 123.583 12.8113C123.564 12.8087 123.544 12.8061 123.523 12.8035C123.245 12.7688 122.963 12.7533 122.691 12.689C122.681 12.6877 122.676 12.6864 122.676 12.6864C121.768 12.4688 120.854 12.4135 119.932 12.5461C119.923 12.5474 119.916 12.5486 119.908 12.5499C119.873 12.5538 119.838 12.5589 119.805 12.5641C119.789 12.5667 119.774 12.5692 119.757 12.5718C119.281 12.6529 118.808 12.7881 118.331 12.7984C117.291 12.8203 116.357 13.2451 115.45 13.6287C114.567 14.002 113.771 14.6225 113.008 15.2237C111.616 16.3191 110.682 17.7828 110.05 19.4138C109.642 20.4668 109.42 21.5778 109.248 22.708C108.999 24.3262 109.129 25.8748 109.692 27.3925C110.025 28.291 110.558 29.0763 111.293 29.7006C112.328 30.5811 113.482 31.2016 114.824 31.5466C116.108 31.8762 117.409 32.0654 118.707 32.1014C120.062 32.1388 121.428 31.938 122.782 31.7809C123.345 31.7153 123.897 31.5144 124.443 31.3394C124.972 31.1694 125.477 30.9236 126.01 30.7704C126.339 30.6751 126.483 30.5091 126.545 30.1847C126.715 29.3067 126.902 28.4314 127.1 27.5586C127.216 27.0514 127.157 26.9728 126.657 27.0874C126.564 27.1093 126.473 27.144 126.383 27.1749C125.81 27.3668 125.251 27.6435 124.663 27.7375C123.21 27.9692 121.742 28.1185 120.281 28.3013C119.232 28.1134 118.212 28.1636 117.174 27.8598C115.693 27.426 114.656 26.6304 114.155 25.1874C114.034 24.8385 114.057 24.4266 114.079 24.0481C114.098 23.7417 114.263 23.6117 114.616 23.7597C115.115 23.9696 115.633 24.1858 116.162 24.2631C117.383 24.4407 118.615 24.6197 119.846 24.639C120.864 24.6557 121.886 24.442 122.906 24.3313C124.077 24.2039 125.182 23.8666 126.205 23.277C127.364 22.6102 128.279 21.7181 128.759 20.4437C128.916 20.0266 129.003 19.5837 129.153 19.1641C129.668 17.73 129.319 16.4015 128.463 15.2661ZM124.093 19.9571C123.586 20.7565 122.777 21.1298 121.879 21.449C120.954 21.776 120.044 21.6795 119.229 21.7438C118.085 21.7258 117.032 21.8211 116.045 21.3538C115.714 21.198 115.355 21.0989 115.026 20.9367C114.688 20.7706 114.578 20.2261 114.863 19.8245C115.427 19.0302 115.967 18.1922 116.666 17.5292C117.177 17.0452 117.924 16.8083 118.57 16.4672C119.643 15.9021 120.806 16.0797 121.931 16.1312C123.001 16.1788 123.896 16.6242 124.394 17.685C124.789 18.5282 124.527 19.2735 124.093 19.9571ZM79.309 15.2597C78.1285 13.6789 76.3572 13.0893 74.4713 12.8138C74.1379 12.7649 73.7903 12.7662 73.4698 12.6709C71.7371 12.156 70.0455 12.698 68.3605 12.922C67.4439 13.0443 66.557 13.5347 65.7022 13.9505C64.6427 14.4667 63.7313 15.2005 62.9487 16.0977C62.1943 16.9628 61.5146 17.8691 61.1336 18.9607C60.7963 19.9223 60.3831 20.8775 60.2131 21.8713C59.9879 23.1908 59.8578 24.5192 60.1192 25.8915C60.3921 27.3281 60.9778 28.5459 61.9793 29.5564C63.1881 30.7742 64.7444 31.4115 66.3793 31.768C67.5482 32.0216 68.766 32.0474 69.9335 32.1722C71.199 32.0435 72.4309 31.9431 73.6551 31.7809C74.1868 31.7101 74.7094 31.5325 75.2231 31.3651C75.7805 31.1849 76.3173 30.9339 76.8785 30.7665C77.1888 30.6738 77.3252 30.5181 77.3857 30.213C77.5582 29.335 77.75 28.461 77.9431 27.5882C78.0629 27.0501 77.9612 26.9574 77.4141 27.1067C76.4949 27.3577 75.5822 27.6409 74.6502 27.834C72.4489 28.2897 70.2477 28.3902 68.0283 27.8379C66.5286 27.4646 65.4988 26.6317 65.0006 25.1835C64.8809 24.8359 64.9066 24.4227 64.9324 24.0442C64.953 23.7417 65.1165 23.6104 65.4705 23.761C65.9687 23.9734 66.4874 24.1884 67.0178 24.2644C68.2549 24.4407 69.5036 24.6184 70.7497 24.639C71.7358 24.6557 72.7244 24.4291 73.7143 24.3326C74.9411 24.2154 76.0907 23.8576 77.1424 23.2268C78.2392 22.569 79.1249 21.7001 79.5935 20.4784C79.7582 20.0472 79.8522 19.5889 80.0105 19.1538C80.5306 17.7171 80.1534 16.3912 79.309 15.2597ZM75.3981 18.8049C75.2501 19.7833 74.6978 20.5492 73.7916 21.0165C72.6858 21.5881 71.8619 21.7425 69.5898 21.74C68.8664 21.7567 67.8031 21.7837 66.8016 21.3345C66.4823 21.1916 66.127 21.1015 65.8438 20.9071C65.4859 20.6625 65.4808 20.266 65.6674 19.9094C66.4372 18.4368 67.4877 17.2396 69.0453 16.556C70.424 15.951 71.8877 15.9381 73.3037 16.2033C74.7004 16.4646 75.6002 17.47 75.3981 18.8049ZM57.0914 12.8396C55.7565 12.846 54.4203 12.8447 53.0854 12.8383C52.8137 12.8383 52.6889 12.9413 52.6348 13.2193C52.4147 14.365 52.1791 15.5081 51.9358 16.6487C51.6886 17.8021 51.426 18.9517 51.1699 20.1025C51.1596 20.1489 51.1454 20.1952 51.1338 20.2428C50.9433 21.0152 50.6858 21.7799 50.5777 22.5651C50.4284 23.649 50.0847 24.6454 49.5067 25.5607C48.648 26.9239 47.4199 27.7015 45.7967 27.798C45.2843 27.8276 44.7668 27.78 44.2532 27.8057C43.598 27.8392 43.0792 27.5212 42.5797 27.1827C41.3928 26.3794 41.2461 24.7432 41.5022 23.5229C41.7031 22.5703 41.9064 21.619 42.1086 20.6664C42.2579 19.9648 42.4008 19.2619 42.5565 18.5629C42.7548 17.6747 42.9659 16.7903 43.1654 15.9021C43.3611 15.0331 43.5323 14.1565 43.7499 13.2927C43.8297 12.9735 43.7923 12.8357 43.4448 12.8396C42.7522 12.846 42.0609 12.8421 41.3684 12.8409C40.6771 12.8409 39.9845 12.8267 39.2932 12.8524C39.1375 12.8576 38.8787 12.9735 38.8504 13.0854C38.5749 14.1526 38.32 15.2262 38.096 16.305C37.9222 17.1495 37.8103 18.0055 37.6532 18.8538C37.5515 19.4022 37.4138 19.9429 37.3031 20.49C37.0701 21.6293 36.8422 22.7698 36.6182 23.9104C36.5847 24.0829 36.5912 24.2631 36.5577 24.4369C36.2114 26.2301 36.595 27.8739 37.621 29.3634C38.5916 30.7742 40.0862 31.4436 41.6631 31.7487C43.0315 32.0126 44.4398 32.3447 45.87 32.0461C46.2768 31.9598 46.6901 31.8839 47.1046 31.844C48.4189 31.7191 49.6341 31.2866 50.7489 30.6017C52.8717 29.299 54.1268 27.3166 54.8747 25.0084C55.2467 23.8614 55.436 22.6565 55.7089 21.4774C55.7462 21.3216 55.7977 21.1697 55.8337 21.0126C56.0101 20.2351 56.1942 19.4589 56.3564 18.6788C56.5289 17.8472 56.6731 17.0091 56.843 16.1763C57.0399 15.2082 57.2459 14.2427 57.4583 13.2773C57.5291 12.9541 57.412 12.8383 57.0914 12.8396ZM35.2833 0.00261464C33.9162 0.0103384 32.5478 0.0116257 31.1807 0.00261464C30.7945 4.00355e-05 30.6645 0.166105 30.613 0.544571C30.4997 1.38389 30.3465 2.22063 30.1701 3.04966C29.9938 3.87482 29.7505 4.6871 29.5728 5.51226C29.4003 6.32197 29.2858 7.14585 29.1236 7.95813C28.8931 9.11799 28.6421 10.2727 28.4001 11.43C28.3769 11.5394 28.3512 11.6501 28.3267 11.7595C28.1323 12.6285 27.9302 13.4974 27.7449 14.3689C27.5827 15.1374 27.4501 15.9111 27.2814 16.6783C27.0973 17.5189 26.8759 18.3518 26.6931 19.1924C26.4936 20.1128 26.3185 21.0384 26.1357 21.9614C25.9542 22.8831 25.7792 23.8074 25.5938 24.7278C25.5474 24.9634 25.4676 25.1925 25.42 25.4268C25.2514 26.2713 25.0557 27.1119 24.9385 27.9628C24.869 28.4674 24.9321 28.99 24.9244 29.505C24.9154 30.0379 25.169 30.4537 25.5011 30.8347C26.0791 31.4977 26.9248 31.5196 27.6908 31.7062C28.9382 32.0088 30.147 31.611 31.3609 31.405C31.5115 31.3793 31.702 31.1463 31.7381 30.9802C31.9595 29.9658 32.141 28.9437 32.3508 27.8418C32.1873 27.892 32.0625 27.9139 31.953 27.9653C31.4072 28.2292 30.9155 28.0259 30.5241 27.6899C30.1766 27.3938 30.0466 26.9432 30.1444 26.4566C30.3568 25.4088 30.5576 24.3583 30.7649 23.3092C30.7893 23.183 30.8292 23.0595 30.855 22.9333C31.0609 21.9356 31.2656 20.9367 31.4703 19.939C31.496 19.8129 31.5102 19.6854 31.5424 19.5619C31.7303 18.8526 31.9466 18.151 32.1062 17.4352C32.3521 16.332 32.5542 15.2185 32.7872 14.1114C33.0305 12.958 33.2944 11.8084 33.5377 10.655C33.7759 9.52992 33.996 8.40096 34.229 7.27586C34.4581 6.16749 34.6963 5.06171 34.9293 3.95463C35.1726 2.79863 35.4107 1.64264 35.6579 0.487929C35.7261 0.164817 35.6463 4.00355e-05 35.2833 0.00261464ZM159.761 12.474C157.99 12.4843 156.225 12.6478 154.55 13.2245C153.58 13.5579 152.632 14.0406 151.776 14.6083C150.431 15.503 149.455 16.7658 148.77 18.2308C148.433 18.9517 148.15 19.6996 147.881 20.4488C147.703 20.9444 147.562 21.458 147.457 21.973C147.284 22.8329 147.163 23.7031 146.999 24.5643C146.888 25.1449 146.752 25.7216 146.615 26.297C146.424 27.1003 146.194 27.8958 146.031 28.7055C145.834 29.6762 145.689 30.6571 145.512 31.6831C145.586 31.7191 145.641 31.7693 145.698 31.7706C147.16 31.7809 148.624 31.7899 150.087 31.7835C150.185 31.7822 150.34 31.6689 150.37 31.5749C150.502 31.1823 150.619 30.7807 150.699 30.3739C150.985 28.9154 151.252 27.4543 151.532 25.9945C151.552 25.8851 151.608 25.7821 151.632 25.6727C151.806 24.8939 152 24.1189 152.144 23.3349C152.383 22.0425 152.589 20.7397 153.267 19.585C154.299 17.8317 155.775 16.798 157.882 16.8302C158.3 16.8366 158.719 16.8019 159.136 16.798C159.454 16.7942 159.604 16.6371 159.633 16.3307C159.656 16.0758 159.664 15.8145 159.723 15.5661C159.915 14.7602 160.142 13.9647 160.326 13.1575C160.459 12.5834 160.352 12.4701 159.761 12.474ZM145.902 12.474C144.213 12.492 142.545 12.6671 140.917 13.1344C139.673 13.4897 138.54 14.0483 137.53 14.8735C135.569 16.471 134.466 18.5668 133.876 20.9766C133.721 21.61 133.582 22.2472 133.437 22.8831C133.24 23.7533 133.031 24.6209 132.854 25.495C132.689 26.3073 132.576 27.1286 132.414 27.9409C132.193 29.0505 131.963 30.1589 131.7 31.2596C131.586 31.7333 131.779 31.817 132.182 31.8054C132.809 31.7886 133.436 31.8015 134.064 31.8015C134.723 31.8015 135.382 31.817 136.042 31.7899C136.197 31.7835 136.438 31.6728 136.486 31.5505C136.635 31.1643 136.729 30.7549 136.81 30.3481C137.091 28.9231 137.357 27.4942 137.63 26.0679C137.648 25.9739 137.685 25.8825 137.707 25.7898C137.884 25.0612 138.063 24.3326 138.235 23.6027C138.489 22.5317 138.672 21.4387 139.004 20.3922C139.592 18.541 141.598 16.7234 143.862 16.8302C144.278 16.8495 144.697 16.798 145.114 16.8096C145.598 16.8225 145.774 16.5843 145.766 16.1299C145.762 15.9239 145.793 15.7115 145.84 15.5107C146.034 14.7062 146.261 13.9093 146.435 13.1009C146.548 12.5718 146.443 12.4688 145.902 12.474Z" fill="#336699"/>
<path d="M104.423 15.5493C103.641 14.2788 102.504 13.4124 101.157 12.8833C100.278 12.5383 99.3071 12.3671 98.3623 12.2629C97.5294 12.1715 96.6746 12.2732 95.8314 12.3105C95.5289 12.3234 95.2213 12.3723 94.929 12.4534C94.3201 12.6207 93.701 12.7765 93.1217 13.0224C92.6106 13.2386 92.1588 13.5888 91.6619 13.8424C91.4894 13.9312 91.2602 13.9119 91.0568 13.9415C91.053 13.7124 91.0234 13.4781 91.0556 13.2541C91.0916 12.9889 91.1959 12.734 91.2474 12.4701C91.4057 11.654 91.546 10.8352 91.7082 10.0204C91.8202 9.45655 91.9528 8.89657 92.0841 8.3366C92.2759 7.5153 92.487 6.69657 92.6673 5.87142C92.8681 4.95357 93.0457 4.02929 93.2298 3.10759C93.41 2.21549 93.5825 1.3221 93.7653 0.431288C93.8323 0.101739 93.6894 4.00355e-05 93.3791 0.00261464C92.0596 0.00905114 90.7402 0.0116272 89.4207 4.14497e-05C89.1117 -0.00253315 88.9328 0.11461 88.8684 0.413264C88.6753 1.30536 88.4797 2.19617 88.293 3.08827C88.145 3.79114 88.0214 4.49787 87.8643 5.19816C87.6828 6.00787 87.4563 6.80728 87.2876 7.61957C87.1074 8.47949 86.9748 9.3497 86.8178 10.2148C86.7946 10.3396 86.7418 10.4606 86.7135 10.5855C86.5281 11.3926 86.335 12.1985 86.1664 13.0095C86.0003 13.8089 85.8716 14.6148 85.7068 15.4142C85.5047 16.4002 85.282 17.3812 85.0683 18.3647C84.9113 19.083 84.7452 19.8 84.5972 20.5196C84.4054 21.458 84.1633 22.3913 84.0578 23.3388C83.9612 24.2142 84.1415 25.0741 84.3294 25.9507C84.61 27.2573 85.2074 28.3451 86.0544 29.3132C86.9117 30.2928 87.9982 30.9931 89.234 31.3857C90.9217 31.9212 92.6428 32.2997 94.4386 32.0371C95.1543 31.9315 95.8945 31.9328 96.5832 31.741C97.4534 31.5003 98.2876 31.1205 99.1282 30.7833C100.39 30.2773 101.452 29.4612 102.313 28.4404C103.477 27.0604 104.36 25.5105 104.875 23.7546C105.251 22.4724 105.605 21.198 105.511 19.8296C105.633 18.2913 105.238 16.8701 104.423 15.5493ZM98.733 25.2955C98.0932 26.2159 97.2127 26.866 96.2176 27.3256C95.3886 27.7079 94.4965 27.9538 93.6121 27.7838C92.2309 27.928 91.0607 27.5959 90.1313 26.6124C89.4902 25.9353 89.1594 25.1217 89.1066 24.1794C88.9881 22.0528 89.6292 20.1785 91.0298 18.6002C92.1845 17.2988 93.6108 16.4504 95.4311 16.4685C95.8816 16.4723 96.3322 16.4865 96.7815 16.4723C98.1318 16.4299 99.8041 17.833 100.13 19.0585C100.758 21.4181 100.045 23.407 98.733 25.2955Z" fill="#336699"/>
<path d="M21.4345 19.8169C21.5761 18.2579 21.1745 16.8432 20.3545 15.5276C19.5563 14.2493 18.4094 13.3868 17.0371 12.8654C16.2274 12.5565 15.3443 12.42 14.4818 12.2707C13.5305 12.1072 12.5676 12.0313 11.6163 12.3351C11.3897 12.4072 11.1335 12.384 10.9044 12.4496C10.2659 12.6337 9.6171 12.7985 9.00692 13.0547C8.97345 13.0688 8.94126 13.0817 8.90908 13.0971C8.42634 13.3005 8.01055 13.4936 7.53425 13.7421C7.40809 13.8077 7.09914 13.9622 7.04765 13.9429C7.04507 13.9403 7.0425 13.939 7.04121 13.9365C7.0322 13.9146 7.02448 13.8901 7.01675 13.867C6.9717 13.706 6.99229 13.5207 7.01933 13.3559C7.06052 13.1074 7.15192 12.877 7.19955 12.6286C7.36303 11.7661 7.49563 10.8971 7.65396 10.0334C7.7518 9.50171 7.87409 8.97264 7.99124 8.44484C8.20493 7.48065 8.43021 6.51904 8.64004 5.55485C8.80352 4.80693 8.94899 4.05515 9.1099 3.30594C9.30943 2.36878 9.52184 1.43549 9.71879 0.498337C9.79088 0.155916 9.64928 -0.00242165 9.27982 0.000152954C7.97708 0.013026 6.67304 0.0117399 5.37029 0.00144151C5.06392 -0.00113309 4.87855 0.117298 4.81032 0.410802C4.62752 1.18962 4.43571 1.96715 4.2748 2.74982C4.10745 3.56211 3.99932 4.3847 3.82038 5.19441C3.51658 6.5641 3.15356 7.92091 2.86263 9.29446C2.55883 10.7311 2.31038 12.1793 2.03619 13.6224C2.01817 13.7163 1.98856 13.809 1.96667 13.903C1.78001 14.6779 1.57791 15.449 1.41314 16.2291C1.23678 17.0595 1.10161 17.8988 0.939406 18.7329C0.828698 19.2955 0.697394 19.8529 0.584112 20.4142C0.388442 21.3796 0.130982 22.34 0.0292856 23.3157C-0.0608254 24.1679 0.0691926 25.0163 0.253277 25.8813C0.560941 27.3244 1.23291 28.5203 2.22413 29.5385C2.93601 30.2684 3.79335 30.8168 4.76784 31.2159C6.18902 31.799 7.66813 32.09 9.16783 32.1028C10.486 32.1144 11.8338 31.9973 13.0954 31.5171C14.0918 31.1387 15.1396 30.831 16.042 30.2878C18.7453 28.658 20.1768 26.0641 21.0354 23.1381C21.0457 23.1046 21.0548 23.0711 21.0638 23.0351C21.0766 22.9888 21.0882 22.9411 21.0998 22.8922C21.3598 21.7864 21.4345 20.0035 21.4371 19.9211C21.4397 19.84 21.4731 19.8246 21.4448 19.8181C21.4422 19.8181 21.4384 19.8169 21.4345 19.8169ZM16.3059 21.1505C16.1051 22.9398 15.4936 24.5927 14.196 25.8903C12.9705 27.1146 11.5094 27.8779 9.70592 27.8123C8.87561 27.7814 8.0453 27.8625 7.25619 27.4596C6.05771 26.8468 5.28791 25.9174 5.10511 24.5837C4.89914 23.0892 5.14888 21.6358 5.82342 20.288C6.56748 18.8025 7.64882 17.6104 9.20001 16.932C10.0561 16.5587 10.9585 16.3231 11.8802 16.493C13.3078 16.3051 14.4792 16.7647 15.3829 17.8138C16.2016 18.7651 16.4424 19.9391 16.3059 21.1505Z" fill="#336699"/>
<path d="M166.705 12.8408C167.413 12.8408 168.121 12.8408 168.829 12.8421C169.067 12.8421 169.245 12.873 169.156 13.2C168.962 13.9247 168.772 14.6521 168.618 15.3871C168.444 16.2174 168.33 17.0606 168.155 17.8896C167.981 18.7174 167.749 19.5322 167.568 20.3574C167.4 21.1207 167.248 21.888 167.121 22.6578C166.995 23.4147 166.807 24.1807 166.823 24.9389C166.861 26.5699 167.96 27.6937 169.595 27.7954C170.172 27.8314 170.754 27.8121 171.332 27.7902C172.194 27.7568 172.961 27.3938 173.619 26.893C174.594 26.1515 175.23 25.1551 175.604 23.9605C175.931 22.9217 176.167 21.8764 176.333 20.8028C176.446 20.0652 176.711 19.3533 176.877 18.6221C177.057 17.8278 177.193 17.0233 177.363 16.2264C177.585 15.1799 177.812 14.1346 178.067 13.097C178.094 12.9863 178.32 12.855 178.457 12.8537C179.792 12.8357 181.128 12.8447 182.463 12.8421C182.749 12.8421 182.892 12.9605 182.832 13.2553C182.643 14.1925 182.453 15.1296 182.256 16.0655C182.084 16.8817 181.902 17.6952 181.727 18.5114C181.539 19.3829 181.349 20.2544 181.17 21.1285C180.986 22.0231 180.822 22.9217 180.635 23.8164C180.484 24.5347 180.309 25.2465 180.153 25.9636C179.956 26.8711 179.776 27.7825 179.574 28.6901C179.394 29.4985 179.206 30.3056 179.001 31.1076C178.856 31.6779 178.721 32.2585 178.501 32.8017C178.172 33.6101 177.811 34.4095 177.397 35.1781C176.806 36.2787 176.025 37.2339 174.98 37.9458C173.982 38.6255 172.927 39.1494 171.722 39.3901C169.861 39.7621 167.997 40.1342 166.099 39.9501C164.553 39.8008 163.014 39.5369 161.489 39.2408C160.841 39.1146 160.226 38.7979 159.618 38.5186C159.49 38.4594 159.37 38.1762 159.396 38.0217C159.542 37.1412 159.736 36.2671 159.913 35.3918C159.945 35.2347 159.972 35.0751 160.02 34.9219C160.155 34.4932 160.33 34.4173 160.742 34.6039C161.425 34.9116 162.085 35.2888 162.793 35.5166C163.519 35.7496 164.286 35.917 165.044 35.9685C166.166 36.0444 167.3 36.0637 168.42 35.9826C170.615 35.823 172.4 34.9013 173.432 32.8674C173.766 32.2095 173.942 31.4706 174.18 30.7652C174.292 30.4331 174.415 30.0971 174.458 29.7534C174.48 29.5796 174.336 29.3839 174.268 29.1986C174.124 29.3015 173.944 29.3762 173.842 29.5114C173.09 30.5065 172.113 31.1746 170.917 31.4964C170.057 31.7281 169.188 31.9559 168.308 32.0757C167.732 32.1542 167.12 32.095 166.542 31.9946C165.837 31.8723 165.126 31.7062 164.463 31.4449C163.591 31.1012 162.891 30.5348 162.375 29.6942C161.556 28.3605 161.546 26.9187 161.683 25.4667C161.781 24.4407 162.051 23.4302 162.247 22.4132C162.272 22.287 162.314 22.1647 162.337 22.0386C162.6 20.6766 162.834 19.3082 163.128 17.9514C163.421 16.5959 163.771 15.2532 164.097 13.9054C164.112 13.8436 164.12 13.7793 164.129 13.7149C164.244 12.8383 164.244 12.8383 165.114 12.8383C165.643 12.8408 166.175 12.8408 166.705 12.8408Z" fill="#336699"/>
<path d="M128.463 15.2661C127.266 13.6776 125.488 13.0777 123.583 12.8112C123.564 12.8087 123.544 12.8061 123.523 12.8035C123.239 12.7636 122.78 12.7005 122.691 12.6889C122.681 12.6877 122.675 12.6864 122.675 12.6864C122.675 12.6864 120.899 12.425 119.908 12.5499C119.873 12.5538 119.838 12.5589 119.805 12.5641C119.789 12.5666 119.774 12.5692 119.757 12.5718C119.253 12.6529 118.331 12.7984 118.331 12.7984C117.649 13.0133 116.357 13.2451 115.45 13.6287C114.567 14.002 113.771 14.6225 113.008 15.2236C111.616 16.3191 110.682 17.7828 110.05 19.4138C109.642 20.4668 109.42 21.5778 109.248 22.708C108.999 24.3261 109.129 25.8748 109.692 27.3925C110.025 28.291 110.558 29.0763 111.293 29.7006C112.328 30.5811 113.482 31.2016 114.824 31.5466C116.108 31.8762 117.409 32.0654 118.707 32.1014C120.062 32.1388 121.428 31.9379 122.782 31.7809C123.345 31.7152 123.897 31.5144 124.443 31.3393C124.972 31.1694 125.477 30.9236 126.01 30.7704C126.339 30.6751 126.483 30.509 126.545 30.1846C126.715 29.3067 126.902 28.4313 127.1 27.5585C127.216 27.0514 127.157 26.9728 126.657 27.0874C126.564 27.1093 126.473 27.144 126.383 27.1749C125.81 27.3667 125.251 27.6435 124.663 27.7375C123.21 27.9692 121.742 28.1185 120.281 28.3013C119.232 28.1134 118.212 28.1636 117.174 27.8598C115.693 27.426 114.656 26.6304 114.155 25.1873C114.034 24.8385 114.057 24.4265 114.079 24.0481C114.098 23.7417 114.263 23.6117 114.616 23.7597C115.115 23.9696 115.633 24.1858 116.162 24.2631C117.383 24.4407 118.615 24.6196 119.846 24.639C120.864 24.6557 121.886 24.442 122.906 24.3313C124.077 24.2038 125.182 23.8666 126.205 23.277C127.364 22.6102 128.279 21.7181 128.759 20.4436C128.916 20.0266 129.003 19.5837 129.153 19.1641C129.668 17.73 129.319 16.4015 128.463 15.2661ZM124.093 19.957C123.586 20.7565 122.777 21.1298 121.879 21.449C120.954 21.776 120.044 21.6794 119.229 21.7438C118.085 21.7258 117.032 21.821 116.045 21.3538C115.714 21.198 115.355 21.0989 115.026 20.9367C114.688 20.7706 114.578 20.2261 114.863 19.8244C115.427 19.0302 115.967 18.1922 116.666 17.5292C117.177 17.0452 117.924 16.8083 118.57 16.4672C119.643 15.902 120.806 16.0797 121.931 16.1312C123.001 16.1788 123.896 16.6242 124.394 17.685C124.789 18.5281 124.527 19.2735 124.093 19.957Z" fill="#336699"/>
<path d="M79.309 15.2597C78.1285 13.6789 76.3572 13.0893 74.4713 12.8138C74.1379 12.7649 73.7903 12.7662 73.4698 12.6709C71.7371 12.156 70.0455 12.6979 68.3605 12.9219C67.4439 13.0442 66.557 13.5347 65.7022 13.9505C64.6427 14.4667 63.7313 15.2004 62.9487 16.0977C62.1943 16.9628 61.5146 17.869 61.1336 18.9607C60.7963 19.9223 60.3831 20.8774 60.2131 21.8712C59.9879 23.1907 59.8579 24.5192 60.1192 25.8915C60.3921 27.3281 60.9778 28.5459 61.9793 29.5564C63.1881 30.7742 64.7444 31.4114 66.3793 31.768C67.5482 32.0216 68.766 32.0473 69.9335 32.1722C71.199 32.0435 72.4309 31.9431 73.6551 31.7809C74.1868 31.7101 74.7094 31.5324 75.2231 31.3651C75.7805 31.1849 76.3173 30.9338 76.8785 30.7665C77.1888 30.6738 77.3252 30.518 77.3857 30.2129C77.5582 29.335 77.75 28.4609 77.9431 27.5881C78.0629 27.05 77.9612 26.9574 77.4141 27.1067C76.4949 27.3577 75.5822 27.6409 74.6502 27.834C72.4489 28.2897 70.2477 28.3901 68.0283 27.8379C66.5286 27.4646 65.4988 26.6317 65.0006 25.1835C64.8809 24.8359 64.9066 24.4227 64.9324 24.0442C64.953 23.7417 65.1165 23.6104 65.4705 23.761C65.9687 23.9734 66.4874 24.1884 67.0178 24.2643C68.2549 24.4407 69.5036 24.6183 70.7497 24.6389C71.7358 24.6557 72.7244 24.4291 73.7143 24.3326C74.9411 24.2154 76.0907 23.8575 77.1424 23.2268C78.2392 22.569 79.1249 21.7 79.5935 20.4784C79.7582 20.0471 79.8522 19.5889 80.0105 19.1537C80.5306 17.7171 80.1534 16.3912 79.309 15.2597ZM75.3981 18.8049C75.2501 19.7832 74.6978 20.5492 73.7916 21.0165C72.6858 21.588 71.8619 21.7425 69.5898 21.7399C68.8664 21.7567 67.8031 21.7837 66.8016 21.3344C66.4823 21.1915 66.127 21.1014 65.8438 20.907C65.4859 20.6625 65.4808 20.266 65.6674 19.9094C66.4372 18.4367 67.4877 17.2395 69.0453 16.556C70.424 15.9509 71.8877 15.9381 73.3037 16.2033C74.7004 16.4646 75.6002 17.47 75.3981 18.8049Z" fill="#336699"/>
<path d="M41.3684 12.8409C42.0596 12.8409 42.7522 12.846 43.4435 12.8396C43.7911 12.8357 43.8297 12.9735 43.7486 13.2927C43.531 14.1565 43.3598 15.0319 43.1641 15.9021C42.9646 16.789 42.7535 17.6747 42.5552 18.5616C42.3995 19.2619 42.2553 19.9648 42.1073 20.6651C41.9052 21.6177 41.7018 22.569 41.5009 23.5216C41.2435 24.742 41.3902 26.3781 42.5771 27.1814C43.0766 27.52 43.5954 27.8392 44.2506 27.8057C44.7642 27.78 45.2817 27.8276 45.7941 27.7967C47.4174 27.7002 48.6455 26.9226 49.5041 25.5607C50.0821 24.6441 50.4258 23.649 50.5738 22.5639C50.682 21.7786 50.9394 21.0152 51.1299 20.2416C51.1415 20.1952 51.1557 20.1489 51.166 20.1012C51.4222 18.9504 51.6848 17.8008 51.9319 16.6474C52.1765 15.5069 52.4121 14.3637 52.6322 13.218C52.685 12.9413 52.8112 12.837 53.0828 12.8383C54.4177 12.8447 55.7539 12.846 57.0889 12.8383C57.4094 12.837 57.5265 12.9529 57.4545 13.2773C57.242 14.2415 57.0361 15.2082 56.8391 16.1763C56.6692 17.0091 56.525 17.8459 56.3525 18.6775C56.1903 19.4589 56.0062 20.2351 55.8299 21.0126C55.7938 21.1684 55.7423 21.3216 55.7063 21.4774C55.4334 22.6552 55.2429 23.8614 54.8721 25.0071C54.1242 27.3153 52.8691 29.2977 50.745 30.6017C49.6302 31.2866 48.4163 31.7178 47.1007 31.844C46.6862 31.8839 46.2743 31.9599 45.8662 32.0448C44.4373 32.3435 43.0277 32.0113 41.6606 31.7474C40.0836 31.4424 38.5891 30.773 37.6172 29.3621C36.5925 27.8727 36.2076 26.2301 36.5551 24.4356C36.5886 24.2631 36.5809 24.0816 36.6156 23.9091C36.8396 22.7685 37.0675 21.628 37.2992 20.4887C37.4112 19.9416 37.5489 19.401 37.6493 18.8526C37.8064 18.0055 37.9184 17.1482 38.0922 16.305C38.3149 15.225 38.5698 14.1513 38.8452 13.0842C38.8736 12.9722 39.1323 12.8563 39.2894 12.8512C39.9845 12.8267 40.6771 12.8409 41.3684 12.8409Z" fill="#336699"/>
<path d="M32.3508 27.8418C32.141 28.9437 31.9595 29.9658 31.7381 30.9802C31.702 31.1463 31.5102 31.3793 31.3609 31.4051C30.147 31.611 28.9369 32.0101 27.6895 31.7063C26.9236 31.5196 26.0778 31.4977 25.4998 30.8348C25.169 30.455 24.9154 30.0379 24.9231 29.505C24.9308 28.9901 24.8677 28.4674 24.9373 27.9628C25.0544 27.1119 25.2501 26.2713 25.4187 25.4268C25.4663 25.1913 25.5461 24.9634 25.5925 24.7278C25.7766 23.8061 25.9516 22.8831 26.1344 21.9614C26.3172 21.0371 26.4923 20.1116 26.6918 19.1911C26.8746 18.3505 27.0961 17.5177 27.2801 16.6783C27.4475 15.9111 27.5801 15.1361 27.7436 14.3689C27.9289 13.4974 28.131 12.6285 28.3254 11.7596C28.3499 11.6501 28.3756 11.5407 28.3988 11.43C28.6408 10.2727 28.8918 9.11802 29.1223 7.95816C29.2845 7.14459 29.399 6.32201 29.5715 5.51229C29.7479 4.68714 29.9925 3.87614 30.1676 3.04969C30.3439 2.22067 30.4971 1.38392 30.6104 0.544604C30.6619 0.166137 30.7932 0.00136136 31.1781 0.00393596C32.5452 0.0129471 33.9123 0.0116598 35.2807 0.00393596C35.6437 0.00136136 35.7248 0.166134 35.6553 0.489247C35.4082 1.64395 35.17 2.79995 34.9267 3.95595C34.6937 5.06303 34.4555 6.16882 34.2264 7.27718C33.9934 8.40357 33.7733 9.53124 33.5351 10.6563C33.2918 11.8098 33.0266 12.9593 32.7833 14.1127C32.5503 15.2198 32.3482 16.3333 32.1024 17.4366C31.9427 18.151 31.7265 18.8539 31.5385 19.5619C31.5063 19.6855 31.4922 19.8142 31.4664 19.9391C31.2618 20.938 31.0571 21.9357 30.8511 22.9333C30.8254 23.0595 30.7855 23.1831 30.761 23.3079C30.5537 24.3571 30.3542 25.4075 30.1405 26.4567C30.0414 26.9433 30.1727 27.3925 30.5203 27.6899C30.9129 28.0259 31.4034 28.2293 31.9492 27.9654C32.0625 27.9139 32.1873 27.892 32.3508 27.8418Z" fill="#336699"/>
<path d="M145.512 31.6831C145.689 30.6571 145.834 29.6762 146.031 28.7043C146.194 27.8959 146.424 27.1003 146.615 26.2971C146.752 25.7216 146.89 25.1449 146.999 24.5644C147.163 23.7032 147.284 22.8329 147.457 21.973C147.562 21.4568 147.702 20.9445 147.881 20.4489C148.15 19.6996 148.433 18.9504 148.77 18.2296C149.455 16.7646 150.431 15.5018 151.776 14.6084C152.632 14.0407 153.578 13.5567 154.549 13.2232C156.225 12.6465 157.989 12.483 159.76 12.4727C160.351 12.4689 160.458 12.5835 160.325 13.1563C160.14 13.9634 159.913 14.7603 159.72 15.5648C159.661 15.8133 159.654 16.0746 159.63 16.3308C159.602 16.6372 159.451 16.7942 159.133 16.7968C158.715 16.8007 158.296 16.8354 157.879 16.829C155.771 16.7968 154.297 17.8305 153.264 19.5838C152.585 20.7372 152.38 22.04 152.142 23.3324C151.998 24.1164 151.803 24.8926 151.629 25.6714C151.605 25.7809 151.55 25.8838 151.529 25.9933C151.251 27.4531 150.982 28.9141 150.696 30.3727C150.616 30.7794 150.499 31.1798 150.369 31.5737C150.338 31.6677 150.184 31.781 150.085 31.7823C148.621 31.79 147.159 31.7797 145.695 31.7694C145.641 31.7694 145.586 31.7192 145.512 31.6831Z" fill="#336699"/>
<path d="M134.064 31.8015C133.437 31.8015 132.809 31.7886 132.184 31.8054C131.781 31.817 131.588 31.7333 131.701 31.2596C131.963 30.1589 132.193 29.0506 132.415 27.9409C132.577 27.1286 132.691 26.3073 132.854 25.495C133.031 24.621 133.24 23.7533 133.437 22.8831C133.582 22.2472 133.722 21.61 133.876 20.9766C134.466 18.5668 135.569 16.4711 137.53 14.8735C138.542 14.0484 139.674 13.4897 140.917 13.1344C142.545 12.6684 144.215 12.492 145.902 12.4753C146.443 12.4701 146.549 12.5731 146.435 13.1009C146.261 13.9093 146.034 14.7062 145.841 15.5107C145.792 15.7115 145.762 15.924 145.766 16.1299C145.774 16.5843 145.599 16.8225 145.114 16.8096C144.697 16.798 144.278 16.8495 143.862 16.8302C141.598 16.7247 139.593 18.541 139.004 20.3935C138.672 21.4387 138.489 22.533 138.235 23.604C138.063 24.3339 137.885 25.0625 137.707 25.7911C137.684 25.8851 137.648 25.9752 137.63 26.0705C137.356 27.4968 137.091 28.9257 136.809 30.3507C136.729 30.7575 136.634 31.1682 136.486 31.5531C136.438 31.6754 136.197 31.7874 136.04 31.7938C135.382 31.817 134.723 31.8015 134.064 31.8015Z" fill="#336699"/>
</svg>
